<?xml version="1.0" standalone="no"?>
<!DOCTYPE svg PUBLIC "-//W3C//DTD SVG 20010904//EN"
 "http://www.w3.org/TR/2001/REC-SVG-20010904/DTD/svg10.dtd">
<svg version="1.0" xmlns="http://www.w3.org/2000/svg"
 width="260.000000pt" height="260.000000pt" viewBox="0 0 260.000000 260.000000"
 preserveAspectRatio="xMidYMid meet">
<metadata>
Created by potrace 1.11, written by Peter Selinger 2001-2013
</metadata>
<g transform="translate(0.000000,260.000000) scale(0.100000,-0.100000)"
fill="#000000" stroke="none">
<path d="M904 2056 c-5 -7 -27 -40 -49 -72 -22 -32 -44 -62 -48 -65 -5 -3 -8
-9 -8 -12 0 -4 -9 -28 -20 -54 -12 -27 -23 -56 -25 -65 -10 -42 -14 -65 -20
-102 -3 -22 -8 -44 -10 -48 -3 -5 1 -8 8 -8 10 0 10 -2 -1 -9 -9 -6 -10 -10
-2 -16 9 -5 9 -10 0 -21 -6 -8 -7 -14 -2 -14 5 0 10 -14 11 -31 1 -17 6 -39
11 -48 5 -9 7 -24 6 -33 -2 -10 0 -18 5 -18 4 0 10 -10 14 -22 3 -13 21 -47
41 -76 19 -30 35 -58 35 -63 0 -6 4 -8 8 -5 5 3 15 -6 22 -19 7 -14 16 -25 20
-25 3 0 24 -16 45 -36 46 -41 75 -59 75 -45 0 5 -7 16 -15 25 -8 8 -15 19 -15
25 0 6 -4 11 -10 11 -5 0 -9 3 -8 8 1 4 -6 22 -15 40 -10 17 -15 32 -12 32 3
0 0 10 -6 23 -7 12 -14 39 -15 61 -2 21 -6 41 -9 44 -2 3 0 11 6 18 6 7 6 15
1 18 -5 3 -7 20 -5 38 3 18 6 45 7 60 0 14 4 24 8 21 5 -2 8 3 8 12 0 18 53
137 69 158 6 6 26 30 45 52 26 29 32 42 24 52 -6 7 -7 13 -4 13 4 0 0 7 -8 16
-9 8 -16 22 -16 30 0 8 -4 14 -10 14 -5 0 -10 6 -10 13 0 7 -12 27 -27 44 -16
18 -35 41 -43 53 -21 31 -44 41 -56 26z"/>
<path d="M1644 2038 c-58 -69 -76 -94 -104 -150 l-29 -56 39 -45 c22 -25 40
-50 40 -56 0 -6 5 -11 11 -11 5 0 7 -4 4 -10 -3 -5 -2 -10 2 -10 8 0 52 -101
56 -130 2 -8 5 -19 8 -25 3 -5 5 -50 4 -100 -2 -86 -25 -188 -46 -201 -5 -3
-9 -13 -9 -24 0 -10 -7 -20 -15 -24 -8 -3 -15 -11 -15 -17 0 -7 -8 -22 -17
-33 -12 -14 -13 -17 -3 -10 8 5 32 21 52 34 21 14 38 31 38 39 0 8 3 11 6 8 7
-7 52 38 93 93 14 19 30 38 34 41 5 3 9 12 11 20 1 8 10 30 20 49 34 68 53
243 32 307 -4 12 -9 30 -11 40 -12 60 -80 203 -96 203 -5 0 -9 6 -9 14 0 8
-15 31 -33 51 l-33 37 -30 -34z"/>
<path d="M1256 1953 c-53 -34 -186 -171 -186 -191 0 -8 -3 -12 -7 -9 -6 7 -82
-113 -88 -138 -1 -5 -5 -17 -8 -25 -25 -65 -31 -167 -14 -240 6 -26 59 -140
66 -140 3 0 12 -13 19 -29 7 -16 22 -39 33 -52 12 -13 29 -35 38 -49 9 -14 27
-37 39 -52 13 -14 22 -29 20 -32 -1 -3 7 -13 20 -21 12 -9 22 -23 22 -31 0 -8
7 -14 15 -14 8 0 15 -4 15 -8 0 -5 25 -9 55 -9 30 0 55 4 55 9 0 4 6 8 13 8
11 0 51 49 142 174 16 23 35 47 42 54 7 7 13 20 13 28 0 8 3 14 8 14 13 0 67
115 77 165 15 73 10 163 -12 215 -3 8 -7 17 -7 20 -5 22 -64 128 -78 141 -10
9 -18 19 -18 23 0 21 -140 157 -200 193 l-35 21 -39 -25z"/>
<path d="M2184 1836 c-3 -9 -9 -14 -13 -11 -4 2 -20 -3 -35 -11 -16 -7 -35
-14 -42 -14 -8 0 -14 -4 -14 -8 0 -5 -16 -14 -35 -22 -19 -8 -35 -17 -35 -22
0 -4 -7 -8 -15 -8 -8 0 -15 -4 -15 -10 0 -5 -5 -10 -11 -10 -5 0 -24 -13 -42
-29 -28 -27 -31 -36 -33 -93 -2 -58 -6 -89 -18 -143 -3 -11 -5 -21 -6 -22 -2
-2 -3 -6 -4 -10 -13 -60 -116 -202 -141 -195 -5 2 -5 -2 1 -8 8 -8 17 -9 30
-1 11 5 47 18 82 27 34 10 62 22 62 28 0 5 3 6 7 3 3 -4 15 0 25 10 10 9 18
12 18 8 0 -4 9 0 20 10 11 10 20 15 20 11 0 -7 123 116 145 146 16 20 48 91
48 106 0 6 3 12 7 12 4 0 7 6 8 13 0 6 4 26 7 42 4 17 8 46 9 65 1 19 5 40 9
47 4 6 3 14 -3 18 -7 4 -7 12 0 26 8 13 7 19 0 19 -6 0 -9 4 -6 9 3 5 -1 14
-9 21 -12 10 -16 9 -21 -4z"/>
<path d="M379 1813 c-2 -81 8 -188 21 -223 1 -3 2 -8 1 -12 0 -5 4 -8 11 -8 6
0 8 -3 5 -6 -3 -4 -1 -16 5 -28 7 -11 13 -23 13 -26 1 -12 40 -70 47 -70 4 0
8 -5 8 -11 0 -19 115 -116 132 -111 4 1 8 -5 8 -14 0 -8 4 -13 9 -9 5 3 16 -1
24 -9 8 -8 17 -12 21 -9 3 4 6 0 6 -7 0 -7 3 -10 6 -7 4 3 15 2 25 -3 10 -6
29 -11 43 -12 13 -1 24 -7 23 -13 -1 -5 6 -9 16 -7 10 2 25 -2 33 -9 11 -9 17
-9 25 -1 5 7 6 10 3 7 -11 -8 -93 104 -120 164 -14 30 -23 63 -21 73 3 10 1
16 -3 13 -5 -3 -11 -1 -15 5 -3 5 0 10 7 10 8 0 9 3 3 8 -6 4 -11 40 -10 81 0
65 -3 76 -25 99 -45 45 -204 140 -246 146 -7 1 -17 5 -20 9 -16 16 -34 5 -35
-20z"/>
<path d="M269 1598 c-1 -7 -1 -40 -1 -73 -1 -119 24 -178 88 -210 54 -27 69
-29 231 -39 51 -3 56 6 13 27 -40 20 -59 34 -53 40 3 4 1 7 -6 7 -15 0 -124
107 -140 138 -6 12 -18 22 -26 22 -8 0 -15 5 -15 10 0 11 -74 90 -84 90 -3 0
-6 -6 -7 -12z"/>
<path d="M2291 1589 c-13 -10 -21 -19 -19 -19 5 0 -64 -75 -136 -150 -54 -55
-88 -85 -133 -115 -24 -15 -43 -29 -43 -31 0 -5 186 11 230 20 85 18 138 88
136 184 -1 23 3 42 8 42 5 0 4 6 -1 13 -5 6 -8 24 -7 39 4 36 -6 40 -35 17z"/>
<path d="M187 1357 c2 -23 5 -54 5 -69 1 -16 5 -28 9 -28 4 0 6 -8 4 -19 -2
-10 3 -31 11 -46 8 -15 11 -31 8 -36 -3 -5 0 -9 5 -9 6 0 10 -3 9 -7 -1 -5 9
-30 21 -58 74 -159 229 -271 411 -299 14 -2 30 -5 35 -6 6 -1 12 -1 15 0 3 1
41 4 85 6 107 7 105 6 105 15 0 4 9 6 20 4 11 -2 20 1 20 7 0 6 3 9 6 6 3 -4
21 0 40 8 19 8 37 15 41 16 27 6 63 24 63 31 0 4 4 6 9 2 5 -3 12 -1 16 5 4 6
11 8 16 5 5 -4 9 -2 9 3 0 5 9 12 20 15 11 3 20 12 20 20 0 16 -141 167 -156
167 -5 0 -16 9 -24 19 -7 11 -17 18 -22 15 -4 -3 -8 -1 -8 4 0 5 -8 12 -17 16
-10 3 -25 10 -33 15 -33 22 -105 51 -127 51 -13 0 -23 3 -23 8 0 6 -47 13
-107 15 -13 1 -23 3 -23 7 0 3 -24 5 -52 5 -29 0 -74 2 -100 6 -28 3 -48 1
-48 -4 0 -5 -7 -4 -15 3 -8 6 -19 9 -25 5 -5 -3 -10 -2 -10 4 0 6 -6 8 -14 5
-8 -3 -17 0 -21 5 -3 6 -11 9 -16 6 -5 -4 -9 -1 -9 5 0 6 -4 9 -9 6 -10 -7
-90 51 -126 90 l-22 24 4 -43z"/>
<path d="M2371 1359 c-47 -56 -134 -99 -208 -103 -18 0 -33 -3 -33 -6 0 -3
-40 -5 -90 -5 -49 0 -90 -2 -90 -5 0 -4 -12 -7 -27 -8 -77 -3 -99 -5 -108 -11
-5 -3 -18 -7 -28 -8 -32 -5 -167 -72 -167 -83 0 -6 -4 -8 -10 -5 -5 3 -10 1
-10 -6 0 -7 -3 -10 -6 -6 -3 3 -13 -2 -23 -11 -9 -10 -41 -38 -70 -64 -29 -27
-50 -48 -47 -48 3 0 -8 -14 -24 -30 -17 -18 -27 -36 -24 -45 4 -8 10 -12 15
-9 5 3 9 0 9 -5 0 -6 9 -11 20 -11 11 0 20 -4 20 -8 0 -5 18 -15 40 -22 22 -7
40 -16 40 -20 0 -4 6 -7 13 -8 6 0 36 -7 66 -16 30 -8 58 -13 62 -10 4 2 9 -1
11 -7 6 -19 203 -20 278 -1 79 19 143 46 132 56 -4 4 -2 6 3 5 6 -2 21 3 35
10 34 18 161 151 154 162 -3 5 -1 9 5 9 11 0 49 80 58 123 3 15 10 27 16 27 6
0 8 2 5 6 -3 3 -2 22 4 42 8 33 20 162 14 162 -1 0 -17 -18 -35 -41z"/>
<path d="M211 997 c-4 -4 -18 -9 -30 -10 -11 -1 -21 -5 -21 -10 0 -4 -4 -5
-10 -2 -5 3 -10 1 -10 -5 0 -6 -4 -8 -10 -5 -5 3 -10 1 -10 -5 0 -6 -4 -9 -8
-6 -5 3 -19 -4 -31 -15 -21 -20 -22 -22 -5 -42 58 -71 153 -142 201 -150 10
-1 24 -6 31 -10 6 -5 16 -6 21 -2 5 3 12 1 15 -3 6 -11 222 -3 234 8 1 1 7 3
14 4 15 1 23 26 9 27 -6 1 -14 3 -18 4 -5 1 -23 6 -40 10 -18 4 -33 11 -33 16
0 8 -45 26 -45 18 -2 -19 -185 160 -185 180 0 10 -59 8 -69 -2z"/>
<path d="M2301 976 c-77 -90 -173 -168 -211 -171 -3 -1 -19 -9 -37 -18 -18 -9
-36 -17 -40 -16 -4 1 -16 1 -25 0 -24 -1 -23 -21 0 -21 10 0 22 -3 26 -7 4 -5
24 -9 44 -10 33 -2 68 -8 82 -13 3 -1 10 -1 15 0 6 1 30 4 55 6 75 6 180 39
180 56 0 6 3 9 6 5 10 -9 104 76 123 111 12 22 15 49 5 39 -4 -3 -13 0 -21 8
-8 8 -26 18 -41 22 -15 3 -29 10 -32 14 -3 5 -20 9 -38 11 -18 1 -32 5 -32 8
0 18 -36 3 -59 -24z"/>
<path d="M1230 888 c0 -4 -3 -7 -7 -6 -9 1 -33 -7 -83 -30 -19 -9 -38 -15 -42
-14 -5 1 -8 -2 -8 -8 0 -5 -5 -10 -11 -10 -5 0 -34 -11 -63 -24 -60 -28 -156
-58 -156 -49 0 3 -6 0 -14 -6 -9 -8 -16 -8 -20 -2 -5 7 -15 7 -31 1 -16 -6
-25 -6 -25 1 0 6 -7 6 -20 -1 -11 -6 -20 -7 -20 -1 0 5 -14 11 -30 13 -25 4
-30 2 -24 -11 3 -9 9 -24 11 -33 3 -10 9 -18 14 -18 5 0 9 -6 9 -12 0 -7 13
-26 29 -43 34 -36 81 -77 81 -70 0 2 20 -6 45 -20 25 -13 42 -18 38 -12 -5 9
-3 9 8 0 14 -11 141 -15 134 -3 -2 3 17 12 42 19 50 15 163 116 163 145 0 9 5
16 12 16 6 0 8 3 5 7 -4 3 -2 12 4 19 6 7 11 28 12 47 2 35 26 42 28 8 1 -34
8 -54 21 -62 7 -5 10 -9 5 -9 -14 0 21 -55 62 -97 22 -22 62 -51 88 -63 27
-12 55 -25 63 -29 21 -10 150 -7 158 5 4 5 16 11 27 12 51 9 128 81 174 165
l21 38 -42 -3 c-24 -2 -48 -7 -54 -10 -8 -6 -49 -4 -49 2 0 1 -20 4 -45 6 -25
2 -51 5 -57 6 -7 1 -13 5 -13 10 0 4 -9 8 -20 8 -11 0 -28 4 -38 9 -83 42
-193 91 -207 91 -9 0 -14 4 -11 8 3 5 0 9 -7 9 -7 0 -27 3 -44 7 -25 6 -33 4
-33 -6 0 -8 -3 -9 -8 -3 -8 12 -72 15 -72 3z"/>
</g>
</svg>
